<svg viewBox="0 0 397 155" fill="none" xmlns="http://www.w3.org/2000/svg">
  <path d="M91.76 100.621s17.699 7.951 37.542 15.57c5.711 2.198 10.453 3.927 16.869 3.747a35.225 35.225 0 0 0 13.15-2.987c4.577-2.046 7.647-4.646 9.127-5.946a46.107 46.107 0 0 0 13.053-19.4 46.011 46.011 0 0 0 2.558-15.113c0-.29 0-.581-.014-.885a39.825 39.825 0 0 0-.069-1.812c-.47-8.034-3.277-15.5-8.117-21.612-4.494-5.67-10.55-9.97-17.519-12.431-7.011-2.475-14.492-2.945-21.627-1.341-7.646 1.714-14.546 5.78-19.98 11.725L106.569 60.77l-3.747 3.913a8.01 8.01 0 0 1 5.006-1.756c1.327 0 2.585.318 3.692.899l1.023.636a8.025 8.025 0 0 1 3.332 6.513 7.975 7.975 0 0 1-1.908 5.185l6.513-6.803 7.868-8.242.138-.152c7.508-8.269 17.589-8.587 24.516-6.14 6.831 2.42 14.367 8.92 15.003 19.899l.042.885c.013.29.013.58.013.885a29.969 29.969 0 0 1-4.092 15.113c-1.148 1.95-2.849 4.895-6.098 7.398-7.384 5.697-16.663 4.522-19.511 4.162-5.033-.636-7.121-2.088-19.193-7.716a665.314 665.314 0 0 0-15.874-7.149L91.76 100.621Z" fill="#509CF4"/>
  <path d="M189.299 83.558a8.006 8.006 0 0 1 7.149-7.965h-59.292a23.03 23.03 0 0 1-12.086-3.43l-4.59-2.834-7.924-4.881c2.019 1.466 3.333 3.83 3.333 6.513a7.975 7.975 0 0 1-1.908 5.185l-.014.014-.65.691h-.014a8.038 8.038 0 0 1-5.462 2.143 7.961 7.961 0 0 1-5.545-2.226 8.012 8.012 0 0 1-2.489-5.821c0-1.756.567-3.388 1.535-4.715l1.494-1.563a8.008 8.008 0 0 1 5.005-1.756c1.328 0 2.586.318 3.692.899l-4.964-3.056-27.683-17.077c-6.983-4.3-15.32-6.36-23.465-5.794-8.449.595-16.192 3.83-22.415 9.375a45.871 45.871 0 0 0-11.241 15.197 45.617 45.617 0 0 0-4.163 19.137c0 .899.028 1.798.084 2.696a39.454 39.454 0 0 0 1.106 7.274 36.817 36.817 0 0 0 6.969 14.09c4.452 5.572 10.467 9.804 17.395 12.251a40.218 40.218 0 0 0 13.399 2.309c2.876 0 5.738-.318 8.559-.94 7.799-1.742 14.81-5.835 20.299-11.864l6.36-6.803 11.533-12.348 6.374-6.817 7.011 4.328a38.988 38.988 0 0 0 20.478 5.808H197.319v-.014c-4.438 0-8.02-3.582-8.02-8.006ZM76.342 93.707l-2.655 2.848-.083.083c-7.647 8.421-17.99 8.726-25.124 6.209-5.919-2.088-10.371-6.098-12.805-11.27-1.161-2.489-1.867-5.24-2.032-8.2-.042-.58-.056-1.188-.056-1.77 0-2.046.208-4.05.609-6.028a29.975 29.975 0 0 1 9.444-16.372c4.024-3.581 9.237-5.406 14.546-5.406a23.42 23.42 0 0 1 12.307 3.498L95.797 72.91l-7.909 8.463-11.546 12.334Z" fill="#0572F1"/>
  <path d="M82.634 78.994c-5.061-2.267-10.426-3.429-15.971-3.429H5.503c4.176.263 7.481 3.748 7.481 7.993 0 4.314-3.415 7.84-7.702 7.992H66.65c3.277 0 6.444.677 9.43 2.019l.263.124 11.532-12.348-5.24-2.35Z" fill="#509CF4"/>
  <path d="M9.956 83.558a4.984 4.984 0 0 1-4.937 4.977h-.041A4.984 4.984 0 0 1 0 83.558a4.984 4.984 0 0 1 4.978-4.978h.041c2.724.027 4.937 2.254 4.937 4.978ZM112.833 70.96a4.998 4.998 0 0 1-4.992 4.993 4.998 4.998 0 0 1-4.992-4.992 4.998 4.998 0 0 1 4.992-4.992 4.998 4.998 0 0 1 4.992 4.992ZM197.306 88.535a4.977 4.977 0 0 0 4.977-4.977 4.977 4.977 0 1 0-9.955 0 4.978 4.978 0 0 0 4.978 4.977Z" fill="#0572F1"/>
  <path d="M254.249 121V52.16h-26.425V39.344h66.516V52.16h-26.425V121h-13.666Zm50.292-70.542V37.926h13.666v12.532h-13.666Zm0 70.542V59.758h13.666V121h-13.666Zm58.494 1.701c-6.2 0-11.643-1.342-16.331-4.026-4.688-2.684-8.355-6.408-11.001-11.171-2.608-4.763-3.913-10.245-3.913-16.445 0-6.69 1.286-12.494 3.856-17.408 2.571-4.952 6.143-8.79 10.718-11.511 4.574-2.722 9.866-4.083 15.877-4.083 6.351 0 11.738 1.493 16.161 4.48 4.461 2.948 7.769 7.126 9.924 12.532 2.155 5.406 2.967 11.775 2.438 19.11h-13.553v-4.99c-.037-6.654-1.209-11.512-3.515-14.574-2.306-3.062-5.935-4.593-10.888-4.593-5.595 0-9.753 1.739-12.475 5.217-2.722 3.44-4.083 8.487-4.083 15.14 0 6.2 1.361 11.001 4.083 14.403 2.722 3.403 6.691 5.104 11.908 5.104 3.365 0 6.257-.737 8.676-2.212 2.457-1.512 4.348-3.686 5.671-6.521l13.496 4.083c-2.344 5.519-5.973 9.81-10.888 12.872-4.877 3.062-10.264 4.593-16.161 4.593Zm-21.094-28.523v-10.32h42.132v10.32h-42.132Z" fill="#000"/>
</svg>
